<mxfile host="app.diagrams.net" modified="2023-08-01T01:10:07.531Z" agent="Mozilla/5.0 (Windows NT 10.0; Win64; x64) AppleWebKit/537.36 (KHTML, like Gecko) Chrome/115.0.0.0 Safari/537.36" version="21.6.2" etag="fUtzQ9h7PTKvCx1CiqJk" type="github">
  <diagram name="Trang-1" id="2q9nX2BQWXKaek-6phNe">
    <mxGraphModel>
      <root>
        <mxCell id="0" />
        <mxCell id="1" parent="0" />
      </root>
    </mxGraphModel>
  </diagram>
</mxfile>
